<svg width="60" height="60" viewBox="0 0 60 60" fill="none" xmlns="http://www.w3.org/2000/svg">
<g filter="url(#filter0_d_92_42)">
<path d="M17.7222 28.8889C18.6799 28.8889 19.5984 28.5084 20.2757 27.8312C20.9529 27.154 21.3333 26.2355 21.3333 25.2778C21.3333 24.3201 20.9529 23.4016 20.2757 22.7243C19.5984 22.0471 18.6799 21.6667 17.7222 21.6667C16.7645 21.6667 15.846 22.0471 15.1688 22.7243C14.4916 23.4016 14.1111 24.3201 14.1111 25.2778C14.1111 26.2355 14.4916 27.154 15.1688 27.8312C15.846 28.5084 16.7645 28.8889 17.7222 28.8889ZM33.6111 25.2778C33.6111 26.2355 33.2307 27.154 32.5534 27.8312C31.8762 28.5084 30.9577 28.8889 30 28.8889C29.0423 28.8889 28.1238 28.5084 27.4466 27.8312C26.7693 27.154 26.3889 26.2355 26.3889 25.2778C26.3889 24.3201 26.7693 23.4016 27.4466 22.7243C28.1238 22.0471 29.0423 21.6667 30 21.6667C30.9577 21.6667 31.8762 22.0471 32.5534 22.7243C33.2307 23.4016 33.6111 24.3201 33.6111 25.2778ZM42.2778 28.8889C43.2355 28.8889 44.154 28.5084 44.8312 27.8312C45.5084 27.154 45.8889 26.2355 45.8889 25.2778C45.8889 24.3201 45.5084 23.4016 44.8312 22.7243C44.154 22.0471 43.2355 21.6667 42.2778 21.6667C41.32 21.6667 40.4016 22.0471 39.7243 22.7243C39.0471 23.4016 38.6667 24.3201 38.6667 25.2778C38.6667 26.2355 39.0471 27.154 39.7243 27.8312C40.4016 28.5084 41.32 28.8889 42.2778 28.8889ZM21.3333 36.8333C21.3333 37.7911 20.9529 38.7096 20.2757 39.3868C19.5984 40.064 18.6799 40.4444 17.7222 40.4444C16.7645 40.4444 15.846 40.064 15.1688 39.3868C14.4916 38.7096 14.1111 37.7911 14.1111 36.8333C14.1111 35.8756 14.4916 34.9571 15.1688 34.2799C15.846 33.6027 16.7645 33.2222 17.7222 33.2222C18.6799 33.2222 19.5984 33.6027 20.2757 34.2799C20.9529 34.9571 21.3333 35.8756 21.3333 36.8333ZM30 40.4444C30.9577 40.4444 31.8762 40.064 32.5534 39.3868C33.2307 38.7096 33.6111 37.7911 33.6111 36.8333C33.6111 35.8756 33.2307 34.9571 32.5534 34.2799C31.8762 33.6027 30.9577 33.2222 30 33.2222C29.0423 33.2222 28.1238 33.6027 27.4466 34.2799C26.7693 34.9571 26.3889 35.8756 26.3889 36.8333C26.3889 37.7911 26.7693 38.7096 27.4466 39.3868C28.1238 40.064 29.0423 40.4444 30 40.4444ZM4 9.02778C4 6.63346 4.95114 4.33721 6.64417 2.64417C8.33721 0.951138 10.6335 0 13.0278 0H46.9722C49.3665 0 51.6628 0.951138 53.3558 2.64417C55.0489 4.33721 56 6.63346 56 9.02778V42.9722C56 45.3665 55.0489 47.6628 53.3558 49.3558C51.6628 51.0489 49.3665 52 46.9722 52H13.0278C10.6335 52 8.33721 51.0489 6.64417 49.3558C4.95114 47.6628 4 45.3665 4 42.9722V9.02778ZM13.0278 3.61111C11.5912 3.61111 10.2134 4.18179 9.19762 5.19762C8.18179 6.21344 7.61111 7.59119 7.61111 9.02778V11.5556H52.3889V9.02778C52.3889 7.59119 51.8182 6.21344 50.8024 5.19762C49.7866 4.18179 48.4088 3.61111 46.9722 3.61111H13.0278ZM7.61111 42.9722C7.61111 44.4088 8.18179 45.7866 9.19762 46.8024C10.2134 47.8182 11.5912 48.3889 13.0278 48.3889H46.9722C48.4088 48.3889 49.7866 47.8182 50.8024 46.8024C51.8182 45.7866 52.3889 44.4088 52.3889 42.9722V15.1667H7.61111V42.9722Z" fill="white"/>
</g>
<defs>
<filter id="filter0_d_92_42" x="0" y="0" width="60" height="60" filterUnits="userSpaceOnUse" color-interpolation-filters="sRGB">
<feFlood flood-opacity="0" result="BackgroundImageFix"/>
<feColorMatrix in="SourceAlpha" type="matrix" values="0 0 0 0 0 0 0 0 0 0 0 0 0 0 0 0 0 0 127 0" result="hardAlpha"/>
<feOffset dy="4"/>
<feGaussianBlur stdDeviation="2"/>
<feComposite in2="hardAlpha" operator="out"/>
<feColorMatrix type="matrix" values="0 0 0 0 0 0 0 0 0 0 0 0 0 0 0 0 0 0 0.25 0"/>
<feBlend mode="normal" in2="BackgroundImageFix" result="effect1_dropShadow_92_42"/>
<feBlend mode="normal" in="SourceGraphic" in2="effect1_dropShadow_92_42" result="shape"/>
</filter>
</defs>
</svg>
